<?xml version="1.0" encoding="utf-8"?>
<!-- Generator: Adobe Illustrator 27.0.1, SVG Export Plug-In . SVG Version: 6.00 Build 0)  -->
<svg version="1.1" id="Artwork" xmlns="http://www.w3.org/2000/svg" xmlns:xlink="http://www.w3.org/1999/xlink" x="0px" y="0px"
	 viewBox="0 0 712 474" style="enable-background:new 0 0 712 474;" xml:space="preserve">
<style type="text/css">
	.st0{fill:#0F62FE;}
</style>
<path id="IBM_xAE_" class="st0" d="M565.85,307.79c0-4.91,3.74-8.65,8.4-8.65c4.66,0,8.4,3.74,8.4,8.65c0,4.92-3.74,8.65-8.4,8.65
	C569.59,316.45,565.85,312.71,565.85,307.79z M580.68,308.34v-1.09c0-3.53-2.77-6.3-6.43-6.3c-3.66,0-6.43,2.77-6.43,6.3v1.09
	c0,3.53,2.77,6.3,6.43,6.3C577.91,314.64,580.68,311.87,580.68,308.34z M572.99,312.25h-2.14v-8.78h3.99c1.97,0,2.98,1.18,2.98,2.77
	c0,1.39-0.63,2.27-1.6,2.65l1.97,3.36h-2.35l-1.64-3.02h-1.22V312.25z M574.59,307.63c0.67,0,1.05-0.29,1.05-0.92v-0.63
	c0-0.63-0.38-0.92-1.05-0.92h-1.6v2.48H574.59z M158,305h77v11h-77V305z M158,295h77v-11h-77V295z M180,274h33v-11h-33V274z
	 M180,253h33v-11h-33V253z M180,232h33v-11h-33V232z M213,200h-33v11h33V200z M158,190h77v-11h-77V190z M158,169h77v-11h-77V169z
	 M246,295h117.37c1.97-3.4,3.47-7.09,4.43-11H246V295z M354.18,242H268v11h95.36C360.94,248.83,357.83,245.11,354.18,242z M268,221
	v11h86.18c3.65-3.11,6.76-6.83,9.18-11H268z M363.37,179H246v11h121.79C366.84,186.09,365.33,182.4,363.37,179z M327,158h-81v11
	h109.33C347.86,162.17,337.92,158,327,158z M268,211h33v-11h-33V211z M332,211h35.53c0.95-3.51,1.47-7.19,1.47-11h-37V211z M268,274
	h33v-11h-33V274z M332,263v11h37c0-3.81-0.52-7.49-1.47-11H332z M246,316h81c11,0,20.86-4.17,28.33-11H246V316z M466,316l3.82-11
	h-7.65L466,316z M458.67,295h14.67l3.86-11H454.8L458.67,295z M451.29,274h29.41l3.86-11h-37.14L451.29,274z M443.92,253h44.16
	l3.86-11h-51.88L443.92,253z M400,211h59.43l-3.83-11H400V211z M479.87,190H554v-11l-70.3,0L479.87,190z M491,158l-3.82,11H554v-11
	H491z M378,316h55v-11h-55V316z M378,295h55v-11h-55V295z M400,274h33v-11h-33V274z M400,253h33v-11h-33V253z M532,200h-55.6
	l-3.83,11H532V200z M499,232h33v-11h-62.91l-3.09,8.89l-3.09-8.89H400v11h33v-10.11l3.55,10.11h58.9l3.55-10.11V232z M532,242h-33
	v11h33V242z M499,274h33v-11h-33V274z M499,295h55v-11h-55V295z M499,316h55v-11h-55V316z M452.13,190l-3.83-11H378v11H452.13z
	 M444.83,169L441,158h-63v11H444.83z"/>
</svg>
